<svg width="29" height="29" viewBox="0 0 29 29" fill="none" xmlns="http://www.w3.org/2000/svg">
<path d="M28.1243 5.48617L18.603 14.8749L28.1243 24.2636C28.3893 24.5117 28.6005 24.8115 28.7449 25.1446C28.8893 25.4776 28.9639 25.8367 28.9639 26.1997C28.9639 26.5627 28.8893 26.9218 28.7449 27.2548C28.6005 27.5879 28.3893 27.8877 28.1243 28.1358C27.8765 28.3816 27.5826 28.5761 27.2595 28.7081C26.9363 28.84 26.5903 28.907 26.2413 28.9049C25.5455 28.902 24.8787 28.6258 24.3847 28.1358L14.8634 18.6145L5.47468 28.1358C4.98068 28.6258 4.31392 28.902 3.61815 28.9049C3.26911 28.907 2.9231 28.84 2.59996 28.7081C2.27683 28.5761 1.98292 28.3816 1.7351 28.1358C1.24113 27.6389 0.963867 26.9667 0.963867 26.266C0.963867 25.5653 1.24113 24.8931 1.7351 24.3962L11.1238 14.8749L1.7351 5.48617C1.3006 4.9788 1.07356 4.32616 1.09934 3.65867C1.12513 2.99118 1.40183 2.358 1.87417 1.88566C2.34651 1.41332 2.97969 1.13661 3.64718 1.11083C4.31467 1.08505 4.96731 1.31209 5.47468 1.74659L14.8634 11.1353L24.2521 1.74659C24.4977 1.49234 24.7909 1.28894 25.115 1.14801C25.4392 1.00708 25.7879 0.93137 26.1413 0.925213C26.4947 0.919056 26.8459 0.982568 27.1748 1.11212C27.5036 1.24168 27.8038 1.43474 28.058 1.68028C28.3123 1.92583 28.5157 2.21905 28.6566 2.5432C28.7975 2.86735 28.8732 3.21608 28.8794 3.56949C28.8855 3.9229 28.822 4.27406 28.6925 4.60293C28.5629 4.93179 28.3699 5.23191 28.1243 5.48617Z" fill="#373737"/>
</svg>
