<svg width="36" height="35" viewBox="0 0 36 35" fill="none" xmlns="http://www.w3.org/2000/svg">
<path d="M23.7649 13.075L19.2774 17.5L23.7649 21.925C23.8897 22.0419 23.9893 22.1832 24.0574 22.3402C24.1254 22.4972 24.1605 22.6664 24.1605 22.8375C24.1605 23.0086 24.1254 23.1778 24.0574 23.3348C23.9893 23.4918 23.8897 23.6331 23.7649 23.75C23.6481 23.8659 23.5095 23.9575 23.3572 24.0197C23.2049 24.0819 23.0419 24.1135 22.8773 24.1125C22.5494 24.1111 22.2352 23.9809 22.0023 23.75L17.5149 19.2625L13.0899 23.75C12.857 23.9809 12.5428 24.1111 12.2149 24.1125C12.0503 24.1135 11.8873 24.0819 11.735 24.0197C11.5827 23.9575 11.4442 23.8659 11.3274 23.75C11.0945 23.5158 10.9639 23.199 10.9639 22.8688C10.9639 22.5385 11.0945 22.2217 11.3274 21.9875L15.7524 17.5L11.3274 13.075C11.1226 12.8359 11.0156 12.5283 11.0277 12.2137C11.0399 11.8991 11.1703 11.6007 11.3929 11.3781C11.6155 11.1554 11.9139 11.025 12.2285 11.0129C12.5431 11.0007 12.8507 11.1077 13.0899 11.3125L17.5149 15.7375L21.9398 11.3125C22.0556 11.1927 22.1938 11.0968 22.3465 11.0304C22.4993 10.964 22.6637 10.9283 22.8303 10.9254C22.9968 10.9225 23.1623 10.9524 23.3173 11.0135C23.4723 11.0745 23.6138 11.1655 23.7336 11.2813C23.8534 11.397 23.9493 11.5352 24.0157 11.688C24.0821 11.8407 24.1178 12.0051 24.1207 12.1717C24.1236 12.3382 24.0937 12.5037 24.0326 12.6587C23.9716 12.8137 23.8806 12.9552 23.7649 13.075ZM29.8898 29.875C27.4424 32.3222 24.3242 33.9888 20.9295 34.6639C17.5349 35.339 14.0163 34.9923 10.8187 33.6677C7.62114 32.3431 4.88812 30.1001 2.96527 27.2223C1.04243 24.3445 0.0161133 20.9611 0.0161133 17.5C0.0161133 14.0389 1.04243 10.6555 2.96527 7.77771C4.88812 4.89989 7.62114 2.65687 10.8187 1.33229C14.0163 0.00770092 17.5349 -0.338962 20.9295 0.336135C24.3242 1.01123 27.4424 2.67777 29.8898 5.12501C31.5151 6.75006 32.8043 8.67932 33.6838 10.8026C34.5634 12.926 35.0161 15.2017 35.0161 17.5C35.0161 19.7983 34.5634 22.0741 33.6838 24.1974C32.8043 26.3207 31.5151 28.25 29.8898 29.875ZM28.1273 6.88751C26.0275 4.79493 23.3547 3.37149 20.4464 2.79693C17.5381 2.22237 14.5248 2.52246 11.7869 3.6593C9.04904 4.79615 6.70944 6.71876 5.06352 9.18437C3.4176 11.65 2.53918 14.548 2.53918 17.5125C2.53918 20.477 3.4176 23.375 5.06352 25.8406C6.70944 28.3063 9.04904 30.2289 11.7869 31.3657C14.5248 32.5026 17.5381 32.8026 20.4464 32.2281C23.3547 31.6535 26.0275 30.2301 28.1273 28.1375C29.5257 26.744 30.6353 25.0881 31.3924 23.2648C32.1495 21.4415 32.5392 19.4867 32.5392 17.5125C32.5392 15.5383 32.1495 13.5835 31.3924 11.7602C30.6353 9.93695 29.5257 8.28106 28.1273 6.88751Z" fill="#373737"/>
</svg>
