<?xml version="1.0" encoding="utf-8"?>
<!-- Generator: Adobe Illustrator 25.2.0, SVG Export Plug-In . SVG Version: 6.00 Build 0)  -->
<svg version="1.1" id="Layer_1" xmlns="http://www.w3.org/2000/svg" xmlns:xlink="http://www.w3.org/1999/xlink" x="0px" y="0px"
	 viewBox="0 0 569.42 89.4" style="enable-background:new 0 0 569.42 89.4;" xml:space="preserve">
<style type="text/css">
	.st0{fill:#010101;}
</style>
<g>
	<path class="st0" d="M62.09,36.63c-1.33,0.36-3.75,0.36-4.84-0.36c-1.57-1.09-1.93-3.99-1.33-9.43c0.85-7.86,0.24-11.85-4.48-11.85
		c-6.53,0-16.09,10.88-22.01,25.4c-6.89,16.81-4.35,27.33,6.41,27.94c4.47,0.24,8.1-1.33,11-9.07c0.48-1.33,0.97-2.78,1.33-4.48
		c0.36-1.58-3.26-0.85-4.23-3.51c-0.48-1.45,0.49-3.87,2.3-5.2c2.54-1.93,7.02-2.42,14.39-2.42c10.89,0,15,3.51,13.18,11.49
		c-2.05,8.95-7.01,17.3-8.95,26.49c-0.49,1.93-0.85,4.47-2.18,5.92c-1.21,1.21-3.38,2.06-6.41,1.82c-5.45-0.36-9.67-2.18-12.1-4.96
		c-6.41,3.26-13.18,4.96-19.95,4.96c-19.96,0-29.39-15.6-21.41-40.27C12.14,20.42,33.31,2.53,58.1,2.53
		c15.84,0,24.55,8.59,20.68,20.44C76.6,29.61,68.99,34.93,62.09,36.63z"/>
	<path class="st0" d="M142.44,30.46c-1.93,0-3.75-0.73-4.23-1.69c-2.66-5.2-4.23-13.79-10.88-13.79c-5.8,0-12.1,5.92-14.03,11.61
		c-2.05,5.8,0.85,10.03,9.8,11.61c5.44,0.97,6.17,3.02,4.83,5.44c-2.18,4.23-6.89,5.68-11.36,5.68c-6.65,0.85-14.03,5.56-15.48,9.92
		c-2.18,6.29,3.02,8.95,10.4,9.19c8.7,0.24,22.5-3.14,29.02-7.01c3.63-2.18,6.05-3.63,7.38-2.66c1.58,1.21,1.09,3.26-1.45,7.13
		c-9.92,15.12-26.85,23.47-46.69,23.47c-19.23,0-29.27-9.19-24.91-22.62c3.14-9.43,11.25-16.44,22.97-20.2
		c-8.34-3.51-11.49-10.03-8.59-18.62c4.72-14.63,23.22-25.4,43.66-25.4c15.6,0,22.97,6.16,19.59,16.93
		C150.9,24.29,148.48,30.46,142.44,30.46z"/>
	<path class="st0" d="M208.26,63.72c-5.32,16.45-18.99,25.64-37.97,25.64c-13.06,0-22.86-4.36-25.64-11.61
		c-2.9-7.5-1.45-16.45,3.87-20.08c1.33-0.97,2.9-1.33,4.35-1.33c1.09,0,2.05,0.12,3.02,0.48c5.32,1.93,8.7,8.47,18.74,8.47
		c5.32,0,9.43-1.82,10.28-4.48c2.9-8.95-37.13-7.98-28.18-35.68c4.72-14.63,18.74-22.86,38.82-22.86c15.97,0,23.95,5.2,22.25,14.39
		c-1.09,5.8-2.9,12.57-10.04,12.57c-1.57,0-2.9-0.48-3.51-1.45c-5.56-9.43-11.37-12.09-15.72-12.09c-3.99,0-7.62,2.54-8.83,6.05
		C175.61,34.45,218.78,31.19,208.26,63.72z"/>
	<path class="st0" d="M238.77,89.36c-9.92,0-16.69-5.45-15.72-13.3c2.3-17.66,13.3-34.22,17.41-54.06c-5.32-0.24-10.76,0-16.09,1.09
		c-1.93,0.85-3.62,2.78-5.56,3.27c-1.45,0.36-2.3-0.12-2.42-1.33c-0.36-6.77,6.29-18.74,15.6-21.53c3.02-0.97,6.53-1.21,10.28-1.21
		c10.16,0,21.89,2.42,31.44,2.42c3.51,0,6.77-0.24,9.43-1.21c1.93-0.61,5.32-2.9,7.13-3.39c1.45-0.36,2.9,0.25,3.51,1.45
		c2.9,6.29-5.32,16.69-11.49,19.96c-3.75,2.06-8.22,2.66-13.18,2.66c-2.78,0-5.69-0.24-8.83-0.48c1.82,1.93,2.42,4.84,1.82,8.35
		c-2.3,13.54-13.06,32.65-15.12,49.22C246.27,86.82,244.94,89.36,238.77,89.36z"/>
	<path class="st0" d="M275.45,89.36c-9.92,0-17.06-5.45-15.73-13.3c3.99-22.37,17.54-41.36,21.77-65.67
		c0.36-1.93,0.48-4.59,1.81-5.92c1.21-1.33,3.75-2.18,7.5-2.18c9.67,0,14.63,4.83,13.3,13.3c-3.15,20.08-17.9,47.53-20.44,65.67
		C282.94,86.82,281.61,89.36,275.45,89.36z"/>
	<path class="st0" d="M354.67,2.28c23.22,0,32.89,17.41,24.43,43.66c-8.47,26-29.51,43.42-52.73,43.42
		c-23.1,0-33.14-17.41-24.67-43.42C310.17,19.7,331.57,2.28,354.67,2.28z M334.35,64.56c9.07,0,18.63-9.92,23.34-24.31
		c4.72-14.63,1.81-24.55-7.38-24.55c-9.19,0-18.63,9.92-23.34,24.55C322.26,54.65,325.28,64.56,334.35,64.56z"/>
	<path class="st0" d="M388.46,89.36c-9.92,0-15.84-5.45-14.51-13.3c3.99-22.37,17.54-41.36,21.77-65.67
		c0.36-1.93,0.48-4.59,1.81-5.92c1.21-1.33,3.75-2.18,7.5-2.18c4.72,0,7.98,1.21,10.04,3.38c9.92,8.59,10.16,26.49,12.82,44.02
		c5.08-12.46,10.76-24.91,13.3-39.3c0.36-1.93,0.48-4.59,1.82-5.92c1.21-1.33,3.75-2.18,7.49-2.18c9.68,0,13.43,4.83,12.1,13.3
		c-3.15,20.08-17.9,47.53-20.44,65.67c-0.73,5.56-2.06,8.1-8.23,8.1c-6.77,0-11.61-2.54-13.66-6.65
		c-8.71-9.56-7.74-26.24-10.64-41.36c-5.2,14.27-11.36,28.78-12.94,39.91C395.95,86.82,394.63,89.36,388.46,89.36z"/>
	<path class="st0" d="M463.24,88.63c-0.73,0.36-1.58,0.61-2.66,0.61c-1.45,0-3.14-0.36-4.59-1.09c-6.53-3.15-8.35-10.4-5.56-18.26
		c7.13-19.35,33.86-38.82,49.22-59.86c-1.09-0.61-1.69-1.45-1.09-3.39c0.97-2.78,4.72-4.59,9.67-4.59c9.92,0,14.51,3.38,15.36,10.76
		c2.18,19.1-7.5,49.82-3.63,66.03c0.36,1.69,0.73,4.11,0,5.56c-1.69,3.62-9.31,4.96-12.94,4.96c-6.89,0-11.97-3.51-12.94-9.32
		c-0.48-2.9-0.48-5.92-0.48-9.19c-3.51,0-6.65,0-10.4,0c-2.66,0-5.68-2.06-4.11-6.89c0.12-0.49,0.36-1.09,0.73-1.69
		c-5.8,7.62-10.64,14.87-12.94,20.68C466.14,84.88,465.29,87.54,463.24,88.63z M496.13,59c1.93-7.98,4.59-16.57,6.53-25.15
		c-6.41,7.99-13.79,16.93-20.32,25.28C487.79,58.64,491.66,58.76,496.13,59z"/>
	<path class="st0" d="M540.43,70.37c6.29,0,10.04,3.87,8.95,9.56c-1.09,5.56-6.05,9.43-12.33,9.43c-6.29,0-9.92-3.87-9.07-9.43
		C528.94,74.24,534.02,70.37,540.43,70.37z M551.31,64.44c-1.09,1.33-3.26,2.18-6.41,2.18c-9.92,0-13.3-5.69-10.88-13.3
		c4.59-14.63,9.67-26.48,12.57-42.93c0.36-1.93,0.48-4.59,1.82-5.92c1.21-1.33,3.75-2.18,7.49-2.18c9.67,0,14.63,4.83,13.3,13.3
		c-2.05,13.06-10.76,28.3-16.08,42.93C552.88,60.45,552.52,62.99,551.31,64.44z"/>
</g>
</svg>
