<?xml version="1.0" encoding="utf-8"?>
<!-- Generator: Adobe Illustrator 25.2.0, SVG Export Plug-In . SVG Version: 6.00 Build 0)  -->
<svg version="1.1" id="Layer_1" xmlns="http://www.w3.org/2000/svg" xmlns:xlink="http://www.w3.org/1999/xlink" x="0px" y="0px"
	 viewBox="0 0 33.91 31.78" style="enable-background:new 0 0 33.91 31.78;" xml:space="preserve">
<style type="text/css">
	.st0{fill:#373737;}
</style>
<path class="st0" d="M19.16,19.35l2.74,2.44l-1.04,1.17l9.92,8.82l3.12-3.51l-9.92-8.82l-1.04,1.17l-2.75-2.44
	c3.59-4.65,3.04-11.36-1.42-15.32C14.13-1.29,6.99-0.87,2.85,3.79c-4.14,4.66-3.72,11.79,0.93,15.93
	C8.24,23.69,14.96,23.46,19.16,19.35z M18.19,17.43c-3.39,3.81-9.24,4.15-13.04,0.76C1.33,14.81,0.99,8.95,4.38,5.14
	c3.38-3.81,9.24-4.15,13.04-0.76C21.23,7.77,21.57,13.62,18.19,17.43z"/>
</svg>
